<svg fill="none" viewBox="0 0 800 200" xmlns="http://www.w3.org/2000/svg"><rect fill="#fff" height="200" rx="16" width="800"/><rect fill="none" height="200" rx="16" stroke="#e5e7eb" width="800"/><!-- Toggle switch illustration --><g transform="translate(570, 45)"><rect width="180" height="110" rx="55" fill="#f3f4f6" stroke="#d1d5db" stroke-width="1.5"/><!-- Sun side (left, inactive) --><circle cx="55" cy="55" r="30" fill="#fef3c7" opacity=".5"/><circle cx="55" cy="55" r="14" fill="#fbbf24" opacity=".6"/><line x1="55" y1="22" x2="55" y2="28" stroke="#f59e0b" stroke-width="2" stroke-linecap="round" opacity=".4"/><line x1="55" y1="82" x2="55" y2="88" stroke="#f59e0b" stroke-width="2" stroke-linecap="round" opacity=".4"/><line x1="22" y1="55" x2="28" y2="55" stroke="#f59e0b" stroke-width="2" stroke-linecap="round" opacity=".4"/><line x1="82" y1="55" x2="88" y2="55" stroke="#f59e0b" stroke-width="2" stroke-linecap="round" opacity=".4"/><!-- Moon side (right, active) --><circle cx="125" cy="55" r="38" fill="#8b5cf6"/><circle cx="125" cy="55" r="37" fill="#7c3aed"/><!-- Moon crescent cutout --><circle cx="138" cy="44" r="22" fill="#f3f4f6"/><!-- Stars on moon --><circle cx="108" cy="38" r="2" fill="#e9d5ff"/><circle cx="102" cy="55" r="1.5" fill="#ddd6fe"/><circle cx="112" cy="68" r="1" fill="#e9d5ff"/></g><!-- Title --><text fill="#0f172a" font-family="system-ui, -apple-system, 'Segoe UI', sans-serif" font-size="40" font-weight="700" letter-spacing="-.5" x="60" y="80">Dark Mode Toggle</text><text fill="#64748b" font-family="system-ui, -apple-system, 'Segoe UI', sans-serif" font-size="14" letter-spacing=".3" x="60" y="108">Multi-framework dark mode toggle for Laravel</text><!-- Feature pills --><g transform="translate(60 128)"><rect fill="#f5f3ff" height="22" rx="11" stroke="#8b5cf6" stroke-width=".8" width="66"/><text fill="#6d28d9" font-family="system-ui, sans-serif" font-size="10" font-weight="500" text-anchor="middle" x="33" y="15">3 Modes</text><rect fill="#eff6ff" height="22" rx="11" stroke="#3b82f6" stroke-width=".8" width="80" x="74"/><text fill="#1e40af" font-family="system-ui, sans-serif" font-size="10" font-weight="500" text-anchor="middle" x="114" y="15">Dark Mode</text><rect fill="#f0fdf4" height="22" rx="11" stroke="#22c55e" stroke-width=".8" width="76" x="162"/><text fill="#166534" font-family="system-ui, sans-serif" font-size="10" font-weight="500" text-anchor="middle" x="200" y="15">No Flash</text><rect fill="#fffbeb" height="22" rx="11" stroke="#f59e0b" stroke-width=".8" width="96" x="246"/><text fill="#b45309" font-family="system-ui, sans-serif" font-size="10" font-weight="500" text-anchor="middle" x="294" y="15">15 Frameworks</text><rect fill="#fef2f2" height="22" rx="11" stroke="#ef4444" stroke-width=".8" width="88" x="350"/><text fill="#b91c1c" font-family="system-ui, sans-serif" font-size="10" font-weight="500" text-anchor="middle" x="394" y="15">Server Sync</text></g></svg>
