<svg fill="none" viewBox="0 0 800 200" xmlns="http://www.w3.org/2000/svg"><rect fill="#fff" height="200" rx="16" width="800"/><rect fill="none" height="200" rx="16" stroke="#e5e7eb" width="800"/><!-- Sun/Moon toggle illustration on right --><g transform="translate(560, 30)"><!-- Sun (light state) --><circle cx="60" cy="70" r="45" fill="#fef3c7" stroke="#fcd34d" stroke-width="1"/><circle cx="60" cy="70" r="28" fill="#fbbf24" opacity=".3"/><circle cx="60" cy="70" r="16" fill="#f59e0b" opacity=".5"/><!-- Sun rays --><line x1="60" y1="12" x2="60" y2="22" stroke="#f59e0b" stroke-width="2" stroke-linecap="round" opacity=".4"/><line x1="60" y1="118" x2="60" y2="128" stroke="#f59e0b" stroke-width="2" stroke-linecap="round" opacity=".4"/><line x1="12" y1="70" x2="22" y2="70" stroke="#f59e0b" stroke-width="2" stroke-linecap="round" opacity=".4"/><line x1="98" y1="70" x2="108" y2="70" stroke="#f59e0b" stroke-width="2" stroke-linecap="round" opacity=".4"/><line x1="26" y1="36" x2="33" y2="43" stroke="#f59e0b" stroke-width="2" stroke-linecap="round" opacity=".3"/><line x1="87" y1="97" x2="94" y2="104" stroke="#f59e0b" stroke-width="2" stroke-linecap="round" opacity=".3"/><line x1="94" y1="36" x2="87" y2="43" stroke="#f59e0b" stroke-width="2" stroke-linecap="round" opacity=".3"/><line x1="33" y1="97" x2="26" y2="104" stroke="#f59e0b" stroke-width="2" stroke-linecap="round" opacity=".3"/><!-- Moon (dark state) --><circle cx="170" cy="70" r="45" fill="#ede9fe" stroke="#c4b5fd" stroke-width="1"/><path d="M185 50 A22 22 0 1 0 185 90 A18 18 0 0 1 185 50" fill="#8b5cf6" opacity=".4"/><circle cx="155" cy="52" r="2" fill="#8b5cf6" opacity=".3"/><circle cx="148" cy="65" r="1.5" fill="#a78bfa" opacity=".3"/><circle cx="158" cy="85" r="1" fill="#8b5cf6" opacity=".25"/></g><!-- Title --><text fill="#0f172a" font-family="system-ui, -apple-system, 'Segoe UI', sans-serif" font-size="40" font-weight="700" letter-spacing="-.5" x="60" y="85">Dark Mode Toggle</text><text fill="#64748b" font-family="system-ui, -apple-system, 'Segoe UI', sans-serif" font-size="14" letter-spacing=".3" x="60" y="115">Multi-framework dark mode toggle for Laravel</text><!-- Feature pills --><g transform="translate(60 135)"><rect fill="#f5f3ff" height="22" rx="11" stroke="#8b5cf6" stroke-width=".8" width="66"/><text fill="#6d28d9" font-family="system-ui, sans-serif" font-size="10" font-weight="500" text-anchor="middle" x="33" y="15">3 Modes</text><rect fill="#eff6ff" height="22" rx="11" stroke="#3b82f6" stroke-width=".8" width="80" x="74"/><text fill="#1e40af" font-family="system-ui, sans-serif" font-size="10" font-weight="500" text-anchor="middle" x="114" y="15">Dark Mode</text><rect fill="#f0fdf4" height="22" rx="11" stroke="#22c55e" stroke-width=".8" width="76" x="162"/><text fill="#166534" font-family="system-ui, sans-serif" font-size="10" font-weight="500" text-anchor="middle" x="200" y="15">No Flash</text><rect fill="#fffbeb" height="22" rx="11" stroke="#f59e0b" stroke-width=".8" width="96" x="246"/><text fill="#b45309" font-family="system-ui, sans-serif" font-size="10" font-weight="500" text-anchor="middle" x="294" y="15">15 Frameworks</text><rect fill="#fef2f2" height="22" rx="11" stroke="#ef4444" stroke-width=".8" width="88" x="350"/><text fill="#b91c1c" font-family="system-ui, sans-serif" font-size="10" font-weight="500" text-anchor="middle" x="394" y="15">Server Sync</text></g></svg>
